<?xml version="1.0" encoding="UTF-8" standalone="no"?>
<svg
   xmlns:dc="http://purl.org/dc/elements/1.1/"
   xmlns:cc="http://creativecommons.org/ns#"
   xmlns:rdf="http://www.w3.org/1999/02/22-rdf-syntax-ns#"
   xmlns:svg="http://www.w3.org/2000/svg"
   xmlns="http://www.w3.org/2000/svg"
   xmlns:xlink="http://www.w3.org/1999/xlink"
   xmlns:sodipodi="http://sodipodi.sourceforge.net/DTD/sodipodi-0.dtd"
   xmlns:inkscape="http://www.inkscape.org/namespaces/inkscape"
   sodipodi:docname="score.svg"
   inkscape:version="1.0 (4035a4fb49, 2020-05-01)"
   id="svg8"
   version="1.1"
   viewBox="0 0 52.916664 31.750001"
   height="120"
   width="200"
   inkscape:export-filename="C:\Users\chuah\AppData\Local\osu!\Skins\kome\png\missed@2x.png"
   inkscape:export-xdpi="192"
   inkscape:export-ydpi="192">
  <defs
     id="defs2">
    <rect
       id="rect1011"
       height="39.823158"
       width="56.126598"
       y="15.902537"
       x="15.768902" />
    <linearGradient
       inkscape:collect="always"
       id="linearGradient989">
      <stop
         style="stop-color:#f352ff;stop-opacity:0"
         offset="0"
         id="stop981" />
      <stop
         id="stop983"
         offset="0.05"
         style="stop-color:#f452ff;stop-opacity:1" />
      <stop
         id="stop985"
         offset="0.94999999"
         style="stop-color:#f452ff;stop-opacity:1" />
      <stop
         style="stop-color:#f352ff;stop-opacity:0"
         offset="1"
         id="stop987" />
    </linearGradient>
    <linearGradient
       id="linearGradient963"
       inkscape:collect="always">
      <stop
         id="stop955"
         offset="0"
         style="stop-color:#52abff;stop-opacity:0" />
      <stop
         style="stop-color:#52abff;stop-opacity:1"
         offset="0.05"
         id="stop957" />
      <stop
         style="stop-color:#52abff;stop-opacity:1"
         offset="0.94999999"
         id="stop959" />
      <stop
         id="stop961"
         offset="1"
         style="stop-color:#52abff;stop-opacity:0" />
    </linearGradient>
    <linearGradient
       inkscape:collect="always"
       id="linearGradient912">
      <stop
         style="stop-color:#a8a8a8;stop-opacity:0"
         offset="0"
         id="stop904" />
      <stop
         id="stop906"
         offset="0.05"
         style="stop-color:#a8a8a8;stop-opacity:1" />
      <stop
         id="stop908"
         offset="0.94999999"
         style="stop-color:#a8a8a8;stop-opacity:1" />
      <stop
         style="stop-color:#a8a8a8;stop-opacity:0"
         offset="1"
         id="stop910" />
    </linearGradient>
    <linearGradient
       inkscape:collect="always"
       id="linearGradient884">
      <stop
         style="stop-color:#fff952;stop-opacity:0"
         offset="0"
         id="stop876" />
      <stop
         id="stop878"
         offset="0.05"
         style="stop-color:#fff952;stop-opacity:0.98387098" />
      <stop
         id="stop880"
         offset="0.94999999"
         style="stop-color:#fff952;stop-opacity:1" />
      <stop
         style="stop-color:#fff952;stop-opacity:0"
         offset="1"
         id="stop882" />
    </linearGradient>
    <linearGradient
       inkscape:collect="always"
       id="linearGradient960">
      <stop
         style="stop-color:#8cff52;stop-opacity:0"
         offset="0"
         id="stop952" />
      <stop
         id="stop954"
         offset="0.05"
         style="stop-color:#8cff52;stop-opacity:1" />
      <stop
         id="stop956"
         offset="0.94999999"
         style="stop-color:#8bff52;stop-opacity:1" />
      <stop
         style="stop-color:#8cff52;stop-opacity:0"
         offset="1"
         id="stop958" />
    </linearGradient>
    <inkscape:perspective
       sodipodi:type="inkscape:persp3d"
       inkscape:vp_x="0 : 25.135421 : 1"
       inkscape:vp_y="0 : 1000 : 0"
       inkscape:vp_z="132.29166 : 25.135421 : 1"
       inkscape:persp3d-origin="66.14583 : 22.930561 : 1"
       id="perspective852" />
    <linearGradient
       id="linearGradient890"
       inkscape:collect="always">
      <stop
         id="stop886"
         offset="0"
         style="stop-color:#ff5252;stop-opacity:0" />
      <stop
         style="stop-color:#ff5252;stop-opacity:1"
         offset="0.05"
         id="stop896" />
      <stop
         style="stop-color:#ff5252;stop-opacity:1"
         offset="0.94999999"
         id="stop894" />
      <stop
         id="stop888"
         offset="1"
         style="stop-color:#ff5252;stop-opacity:0" />
    </linearGradient>
    <linearGradient
       gradientUnits="userSpaceOnUse"
       y2="6.6145835"
       x2="132.29167"
       y1="6.6145835"
       x1="0"
       id="linearGradient892"
       xlink:href="#linearGradient912"
       inkscape:collect="always"
       gradientTransform="translate(-39.6875)" />
    <linearGradient
       inkscape:collect="always"
       xlink:href="#linearGradient960"
       id="linearGradient949"
       gradientUnits="userSpaceOnUse"
       gradientTransform="translate(-39.6875)"
       x1="0"
       y1="6.6145835"
       x2="132.29167"
       y2="6.6145835" />
    <linearGradient
       gradientTransform="matrix(0.26458333,0,0,0.26458333,-39.6875,8e-7)"
       gradientUnits="userSpaceOnUse"
       y2="25"
       x2="500"
       y1="25"
       x1="-5e-07"
       id="linearGradient874"
       xlink:href="#linearGradient884"
       inkscape:collect="always" />
    <linearGradient
       y2="6.6145835"
       x2="132.29167"
       y1="6.6145835"
       x1="0"
       gradientTransform="translate(-39.6875)"
       gradientUnits="userSpaceOnUse"
       id="linearGradient902"
       xlink:href="#linearGradient890"
       inkscape:collect="always" />
    <linearGradient
       y2="6.6145835"
       x2="132.29167"
       y1="6.6145835"
       x1="0"
       gradientTransform="translate(-39.6875)"
       gradientUnits="userSpaceOnUse"
       id="linearGradient922"
       xlink:href="#linearGradient963"
       inkscape:collect="always" />
    <linearGradient
       y2="6.6145835"
       x2="132.29167"
       y1="6.6145835"
       x1="0"
       gradientTransform="translate(-39.6875)"
       gradientUnits="userSpaceOnUse"
       id="linearGradient969"
       xlink:href="#linearGradient989"
       inkscape:collect="always" />
    <filter
       height="1.0010388"
       y="-0.0005194"
       width="1.0000623"
       x="-3.1164e-05"
       id="filter1003"
       style="color-interpolation-filters:sRGB"
       inkscape:collect="always">
      <feGaussianBlur
         id="feGaussianBlur1005"
         stdDeviation="0.0017178073"
         inkscape:collect="always" />
    </filter>
    <linearGradient
       y2="6.6145835"
       x2="132.29167"
       y1="6.6145835"
       x1="0"
       gradientTransform="translate(-39.6875)"
       gradientUnits="userSpaceOnUse"
       id="linearGradient1007"
       xlink:href="#linearGradient890"
       inkscape:collect="always" />
  </defs>
  <sodipodi:namedview
     inkscape:window-maximized="1"
     inkscape:window-y="22"
     inkscape:window-x="-8"
     inkscape:window-height="1027"
     inkscape:window-width="1920"
     units="px"
     showgrid="false"
     inkscape:document-rotation="0"
     inkscape:current-layer="g936"
     inkscape:document-units="px"
     inkscape:cy="2.354293"
     inkscape:cx="36.207376"
     inkscape:zoom="1.979899"
     inkscape:pageshadow="2"
     inkscape:pageopacity="0.0"
     borderopacity="1.0"
     bordercolor="#666666"
     pagecolor="#ffffff"
     id="base"
     showguides="true"
     inkscape:guide-bbox="true" />
  <metadata
     id="metadata5">
    <rdf:RDF>
      <cc:Work
         rdf:about="">
        <dc:format>image/svg+xml</dc:format>
        <dc:type
           rdf:resource="http://purl.org/dc/dcmitype/StillImage" />
        <dc:title></dc:title>
      </cc:Work>
    </rdf:RDF>
  </metadata>
  <g
     sodipodi:insensitive="true"
     style="display:none"
     inkscape:label="template"
     inkscape:groupmode="layer"
     id="g924">
    <path
       d="M -39.6875,2.6458338 V 10.583334 H 92.604165 V 2.6458338 Z"
       style="opacity:0.65;fill:url(#linearGradient902);fill-opacity:1;fill-rule:nonzero;stroke:#5aff3e;stroke-width:0"
       id="path922"
       sodipodi:nodetypes="ccccc" />
    <text
       xml:space="preserve"
       style="font-size:6.35px;line-height:1.25;font-family:'Iosevka Sparkle';-inkscape-font-specification:'Iosevka Sparkle';letter-spacing:-0.264583px;stroke-width:0.264583"
       x="16.118862"
       y="8.9482088"
       id="text928"><tspan
         sodipodi:role="line"
         id="tspan926"
         x="16.118862"
         y="8.9482088"
         style="font-size:6.35px;stroke-width:0.264583">MISSED</tspan></text>
  </g>
  <g
     sodipodi:insensitive="true"
     id="layer1"
     inkscape:groupmode="layer"
     inkscape:label="missed"
     style="display:inline">
    <path
       id="rect847"
       style="opacity:0.65;fill:url(#linearGradient1007);fill-opacity:1;fill-rule:nonzero;stroke:#5aff3e;stroke-width:0"
       d="M -39.6875,2.6458338 V 10.583334 H 92.604165 V 2.6458338 Z m 64.43586,1.584399 c 0.160866,0 0.321791,0.01874 0.482658,0.05684 0.160866,0.0381 0.306983,0.110175 0.438216,0.216008 0.131233,0.105833 0.230955,0.235173 0.298688,0.387573 0.06773,0.1524 0.101288,0.31084 0.101288,0.47594 h -0.533302 c 0,-0.127 -0.03801,-0.245467 -0.114205,-0.355534 -0.07197,-0.1143 -0.171688,-0.192278 -0.298691,-0.234611 -0.122764,-0.04657 -0.247652,-0.07028 -0.374652,-0.07028 -0.1397,0 -0.274945,0.02765 -0.406178,0.08268 -0.127,0.05503 -0.224237,0.146369 -0.291971,0.273369 -0.06773,0.122768 -0.101803,0.25159 -0.101803,0.387056 0,0.1905 0.06762,0.359813 0.203089,0.50798 0.135466,0.143933 0.292454,0.250076 0.470254,0.31781 0.1778,0.0635 0.351049,0.135057 0.520383,0.21549 0.173566,0.0762 0.334491,0.175924 0.482658,0.29869 0.148166,0.118534 0.266634,0.26465 0.355534,0.438216 0.0889,0.173567 0.133326,0.353236 0.133326,0.539502 0,0.173567 -0.03604,0.34288 -0.108006,0.50798 -0.06773,0.1651 -0.168907,0.304796 -0.304374,0.419096 -0.135466,0.1143 -0.288001,0.194762 -0.457335,0.241328 -0.169333,0.04233 -0.340614,0.06356 -0.51418,0.06356 -0.169334,0 -0.33668,-0.01874 -0.50178,-0.05684 -0.1651,-0.0381 -0.317635,-0.108206 -0.457335,-0.209806 -0.135467,-0.105833 -0.239125,-0.237141 -0.311092,-0.393774 -0.07197,-0.156634 -0.108005,-0.319526 -0.108005,-0.488859 h 0.533302 c 0,0.135466 0.04049,0.260354 0.120922,0.374654 0.08467,0.1143 0.19226,0.192794 0.323493,0.235127 0.131236,0.0381 0.265028,0.05684 0.400495,0.05684 0.1397,0 0.27691,-0.02516 0.412377,-0.07597 0.135466,-0.0508 0.241609,-0.137682 0.317809,-0.260449 0.08043,-0.127 0.120407,-0.260276 0.120407,-0.399976 0,-0.1905 -0.06959,-0.357844 -0.209291,-0.501778 -0.135467,-0.148166 -0.292454,-0.256278 -0.470254,-0.324011 -0.1778,-0.06773 -0.353534,-0.139291 -0.527101,-0.215491 -0.173566,-0.0762 -0.333973,-0.173955 -0.482139,-0.292488 -0.143934,-0.122767 -0.260432,-0.270851 -0.349332,-0.444417 -0.08467,-0.173567 -0.127125,-0.35572 -0.127125,-0.54622 0,-0.169334 0.03158,-0.334194 0.09508,-0.495061 0.0635,-0.1651 0.158771,-0.304795 0.285771,-0.419096 0.131233,-0.1143 0.279318,-0.194762 0.444418,-0.241328 0.1651,-0.04657 0.334412,-0.06976 0.507979,-0.06976 z m 3.394106,0 c 0.160867,0 0.321792,0.01874 0.482658,0.05684 0.160867,0.0381 0.306983,0.110175 0.438217,0.216008 0.131233,0.105833 0.230957,0.235173 0.29869,0.387573 0.06773,0.1524 0.101286,0.31084 0.101286,0.47594 h -0.5333 c 0,-0.127 -0.038,-0.245467 -0.114205,-0.355534 -0.07197,-0.1143 -0.17169,-0.192278 -0.29869,-0.234611 -0.122767,-0.04657 -0.247656,-0.07028 -0.374656,-0.07028 -0.1397,0 -0.274942,0.02765 -0.406175,0.08268 -0.127,0.05503 -0.22424,0.146369 -0.291973,0.273369 -0.06773,0.122767 -0.101801,0.25159 -0.101801,0.387056 0,0.1905 0.06762,0.359813 0.203089,0.50798 0.135467,0.143933 0.292454,0.250076 0.470254,0.31781 0.1778,0.0635 0.35105,0.135057 0.520383,0.21549 0.173567,0.0762 0.334489,0.175924 0.482656,0.29869 0.148166,0.118534 0.266633,0.26465 0.355533,0.438216 0.0889,0.173567 0.133327,0.353236 0.133327,0.539502 0,0.173567 -0.03604,0.34288 -0.108003,0.50798 -0.06773,0.1651 -0.168908,0.304796 -0.304374,0.419096 -0.135467,0.1143 -0.288005,0.194762 -0.457338,0.241328 -0.169333,0.04233 -0.340614,0.06356 -0.514181,0.06356 -0.169333,0 -0.336677,-0.01874 -0.501777,-0.05684 -0.1651,-0.0381 -0.317637,-0.108206 -0.457337,-0.209806 -0.135467,-0.105833 -0.239125,-0.237141 -0.311092,-0.393774 -0.07197,-0.156634 -0.108003,-0.319526 -0.108003,-0.488859 h 0.5333 c 0,0.135466 0.04049,0.260354 0.120922,0.374654 0.08467,0.1143 0.192262,0.192794 0.323496,0.235127 0.131233,0.0381 0.265025,0.05684 0.400491,0.05684 0.1397,0 0.276913,-0.02516 0.41238,-0.07597 0.135467,-0.0508 0.24161,-0.137682 0.31781,-0.260449 0.08043,-0.127 0.120406,-0.260276 0.120406,-0.399976 0,-0.1905 -0.06959,-0.357844 -0.209291,-0.501778 -0.135466,-0.148166 -0.292454,-0.256278 -0.470254,-0.324011 -0.1778,-0.06773 -0.353534,-0.139291 -0.5271,-0.215491 -0.173567,-0.0762 -0.333976,-0.173955 -0.482143,-0.292488 -0.143933,-0.122767 -0.260432,-0.270851 -0.349332,-0.444417 -0.08467,-0.173567 -0.127124,-0.35572 -0.127124,-0.54622 0,-0.169334 0.03159,-0.334194 0.09509,-0.495061 0.0635,-0.1651 0.158768,-0.304795 0.285768,-0.419096 0.131234,-0.1143 0.279318,-0.194762 0.444418,-0.241328 0.1651,-0.04657 0.334413,-0.06976 0.507979,-0.06976 z m -11.515574,0.05064 h 0.774629 l 1.003556,2.800346 1.003041,-2.800346 h 0.774629 v 4.667415 h -0.533302 v -3.848343 l -0.977718,2.724381 h -0.533818 l -0.977717,-2.724381 v 3.848343 h -0.5333 z m 4.216797,0 H 22.7614 v 0.476457 h -0.692463 v 3.708304 H 22.7614 v 0.482657 h -1.917711 v -0.482657 h 0.691946 v -3.708301 h -0.691946 z m 9.613365,0 h 2.387968 v 0.476457 h -1.85415 v 1.479496 h 1.460376 v 0.47594 h -1.460376 v 1.752868 h 1.85415 v 0.482657 h -2.387968 z m 3.140377,0 h 1.28261 c 0.148167,0 0.294283,0.01481 0.438216,0.04444 0.148167,0.02963 0.285893,0.08493 0.412896,0.165365 0.127,0.08043 0.234593,0.181607 0.323493,0.304374 0.0889,0.122766 0.150619,0.258527 0.184486,0.406693 0.03387,0.143934 0.05064,0.29005 0.05064,0.438216 v 1.943034 c 0,0.1524 -0.01677,0.302452 -0.05064,0.450619 -0.03387,0.143933 -0.09559,0.277725 -0.184486,0.400492 -0.0889,0.122767 -0.196493,0.223941 -0.323493,0.304374 -0.127003,0.0762 -0.264729,0.131498 -0.412896,0.165365 -0.143933,0.02963 -0.290049,0.04444 -0.438216,0.04444 h -1.28261 z m 0.533302,0.476457 v 3.708304 h 0.749308 c 0.118533,0 0.235032,-0.01678 0.349332,-0.05064 0.1143,-0.03387 0.213506,-0.0931 0.298172,-0.177767 0.08467,-0.0889 0.144418,-0.190591 0.178284,-0.304891 0.03387,-0.1143 0.05064,-0.230799 0.05064,-0.349333 v -1.943034 c 0,-0.118533 -0.01677,-0.235032 -0.05064,-0.349332 -0.03387,-0.1143 -0.09362,-0.214023 -0.178284,-0.29869 -0.08467,-0.08467 -0.183872,-0.1439 -0.298172,-0.177767 -0.1143,-0.0381 -0.230799,-0.05684 -0.349332,-0.05684 z" />
    <text
       id="text1071"
       y="27.915283"
       x="20.768721"
       style="font-size:19.7556px;line-height:1.25;font-family:'Iosevka Sparkle';-inkscape-font-specification:'Iosevka Sparkle';letter-spacing:-0.529167px;display:inline;opacity:0.65;fill:#ff5252;fill-opacity:1;stroke-width:0.264583;filter:url(#filter1003)"
       xml:space="preserve"><tspan
         style="font-size:19.7556px;fill:#ff5252;fill-opacity:1;stroke-width:0.264583"
         y="27.915283"
         x="20.768721"
         id="tspan1069"
         sodipodi:role="line">0</tspan></text>
  </g>
  <g
     sodipodi:insensitive="true"
     style="display:none"
     inkscape:label="50"
     inkscape:groupmode="layer"
     id="g900">
    <path
       d="M -39.6875,2.6458338 V 10.583334 H 92.604165 V 2.6458338 Z m 64.43586,1.584399 c 0.160866,0 0.321791,0.01874 0.482658,0.05684 0.160866,0.0381 0.306983,0.110175 0.438216,0.216008 0.131233,0.105833 0.230955,0.235173 0.298688,0.387573 0.06773,0.1524 0.101288,0.31084 0.101288,0.47594 h -0.533302 c 0,-0.127 -0.03801,-0.245467 -0.114205,-0.355534 -0.07197,-0.1143 -0.171688,-0.192278 -0.298691,-0.234611 -0.122764,-0.04657 -0.247652,-0.07028 -0.374652,-0.07028 -0.1397,0 -0.274945,0.02765 -0.406178,0.08268 -0.127,0.05503 -0.224237,0.146369 -0.291971,0.273369 -0.06773,0.122768 -0.101803,0.25159 -0.101803,0.387056 0,0.1905 0.06762,0.359813 0.203089,0.50798 0.135466,0.143933 0.292454,0.250076 0.470254,0.31781 0.1778,0.0635 0.351049,0.135057 0.520383,0.21549 0.173566,0.0762 0.334491,0.175924 0.482658,0.29869 0.148166,0.118534 0.266634,0.26465 0.355534,0.438216 0.0889,0.173567 0.133326,0.353236 0.133326,0.539502 0,0.173567 -0.03604,0.34288 -0.108006,0.50798 -0.06773,0.1651 -0.168907,0.304796 -0.304374,0.419096 -0.135466,0.1143 -0.288001,0.194762 -0.457335,0.241328 -0.169333,0.04233 -0.340614,0.06356 -0.51418,0.06356 -0.169334,0 -0.33668,-0.01874 -0.50178,-0.05684 -0.1651,-0.0381 -0.317635,-0.108206 -0.457335,-0.209806 -0.135467,-0.105833 -0.239125,-0.237141 -0.311092,-0.393774 -0.07197,-0.156634 -0.108005,-0.319526 -0.108005,-0.488859 h 0.533302 c 0,0.135466 0.04049,0.260354 0.120922,0.374654 0.08467,0.1143 0.19226,0.192794 0.323493,0.235127 0.131236,0.0381 0.265028,0.05684 0.400495,0.05684 0.1397,0 0.27691,-0.02516 0.412377,-0.07597 0.135466,-0.0508 0.241609,-0.137682 0.317809,-0.260449 0.08043,-0.127 0.120407,-0.260276 0.120407,-0.399976 0,-0.1905 -0.06959,-0.357844 -0.209291,-0.501778 -0.135467,-0.148166 -0.292454,-0.256278 -0.470254,-0.324011 -0.1778,-0.06773 -0.353534,-0.139291 -0.527101,-0.215491 -0.173566,-0.0762 -0.333973,-0.173955 -0.482139,-0.292488 -0.143934,-0.122767 -0.260432,-0.270851 -0.349332,-0.444417 -0.08467,-0.173567 -0.127125,-0.35572 -0.127125,-0.54622 0,-0.169334 0.03158,-0.334194 0.09508,-0.495061 0.0635,-0.1651 0.158771,-0.304795 0.285771,-0.419096 0.131233,-0.1143 0.279318,-0.194762 0.444418,-0.241328 0.1651,-0.04657 0.334412,-0.06976 0.507979,-0.06976 z m 3.394106,0 c 0.160867,0 0.321792,0.01874 0.482658,0.05684 0.160867,0.0381 0.306983,0.110175 0.438217,0.216008 0.131233,0.105833 0.230957,0.235173 0.29869,0.387573 0.06773,0.1524 0.101286,0.31084 0.101286,0.47594 h -0.5333 c 0,-0.127 -0.038,-0.245467 -0.114205,-0.355534 -0.07197,-0.1143 -0.17169,-0.192278 -0.29869,-0.234611 -0.122767,-0.04657 -0.247656,-0.07028 -0.374656,-0.07028 -0.1397,0 -0.274942,0.02765 -0.406175,0.08268 -0.127,0.05503 -0.22424,0.146369 -0.291973,0.273369 -0.06773,0.122767 -0.101801,0.25159 -0.101801,0.387056 0,0.1905 0.06762,0.359813 0.203089,0.50798 0.135467,0.143933 0.292454,0.250076 0.470254,0.31781 0.1778,0.0635 0.35105,0.135057 0.520383,0.21549 0.173567,0.0762 0.334489,0.175924 0.482656,0.29869 0.148166,0.118534 0.266633,0.26465 0.355533,0.438216 0.0889,0.173567 0.133327,0.353236 0.133327,0.539502 0,0.173567 -0.03604,0.34288 -0.108003,0.50798 -0.06773,0.1651 -0.168908,0.304796 -0.304374,0.419096 -0.135467,0.1143 -0.288005,0.194762 -0.457338,0.241328 -0.169333,0.04233 -0.340614,0.06356 -0.514181,0.06356 -0.169333,0 -0.336677,-0.01874 -0.501777,-0.05684 -0.1651,-0.0381 -0.317637,-0.108206 -0.457337,-0.209806 -0.135467,-0.105833 -0.239125,-0.237141 -0.311092,-0.393774 -0.07197,-0.156634 -0.108003,-0.319526 -0.108003,-0.488859 h 0.5333 c 0,0.135466 0.04049,0.260354 0.120922,0.374654 0.08467,0.1143 0.192262,0.192794 0.323496,0.235127 0.131233,0.0381 0.265025,0.05684 0.400491,0.05684 0.1397,0 0.276913,-0.02516 0.41238,-0.07597 0.135467,-0.0508 0.24161,-0.137682 0.31781,-0.260449 0.08043,-0.127 0.120406,-0.260276 0.120406,-0.399976 0,-0.1905 -0.06959,-0.357844 -0.209291,-0.501778 -0.135466,-0.148166 -0.292454,-0.256278 -0.470254,-0.324011 -0.1778,-0.06773 -0.353534,-0.139291 -0.5271,-0.215491 -0.173567,-0.0762 -0.333976,-0.173955 -0.482143,-0.292488 -0.143933,-0.122767 -0.260432,-0.270851 -0.349332,-0.444417 -0.08467,-0.173567 -0.127124,-0.35572 -0.127124,-0.54622 0,-0.169334 0.03159,-0.334194 0.09509,-0.495061 0.0635,-0.1651 0.158768,-0.304795 0.285768,-0.419096 0.131234,-0.1143 0.279318,-0.194762 0.444418,-0.241328 0.1651,-0.04657 0.334413,-0.06976 0.507979,-0.06976 z m -11.515574,0.05064 h 0.774629 l 1.003556,2.800346 1.003041,-2.800346 h 0.774629 v 4.667415 h -0.533302 v -3.848343 l -0.977718,2.724381 h -0.533818 l -0.977717,-2.724381 v 3.848343 h -0.5333 z m 4.216797,0 H 22.7614 v 0.476457 h -0.692463 v 3.708304 H 22.7614 v 0.482657 h -1.917711 v -0.482657 h 0.691946 v -3.708301 h -0.691946 z m 9.613365,0 h 2.387968 v 0.476457 h -1.85415 v 1.479496 h 1.460376 v 0.47594 h -1.460376 v 1.752868 h 1.85415 v 0.482657 h -2.387968 z m 3.140377,0 h 1.28261 c 0.148167,0 0.294283,0.01481 0.438216,0.04444 0.148167,0.02963 0.285893,0.08493 0.412896,0.165365 0.127,0.08043 0.234593,0.181607 0.323493,0.304374 0.0889,0.122766 0.150619,0.258527 0.184486,0.406693 0.03387,0.143934 0.05064,0.29005 0.05064,0.438216 v 1.943034 c 0,0.1524 -0.01677,0.302452 -0.05064,0.450619 -0.03387,0.143933 -0.09559,0.277725 -0.184486,0.400492 -0.0889,0.122767 -0.196493,0.223941 -0.323493,0.304374 -0.127003,0.0762 -0.264729,0.131498 -0.412896,0.165365 -0.143933,0.02963 -0.290049,0.04444 -0.438216,0.04444 h -1.28261 z m 0.533302,0.476457 v 3.708304 h 0.749308 c 0.118533,0 0.235032,-0.01678 0.349332,-0.05064 0.1143,-0.03387 0.213506,-0.0931 0.298172,-0.177767 0.08467,-0.0889 0.144418,-0.190591 0.178284,-0.304891 0.03387,-0.1143 0.05064,-0.230799 0.05064,-0.349333 v -1.943034 c 0,-0.118533 -0.01677,-0.235032 -0.05064,-0.349332 -0.03387,-0.1143 -0.09362,-0.214023 -0.178284,-0.29869 -0.08467,-0.08467 -0.183872,-0.1439 -0.298172,-0.177767 -0.1143,-0.0381 -0.230799,-0.05684 -0.349332,-0.05684 z"
       style="opacity:0.65;fill:url(#linearGradient892);fill-opacity:1;fill-rule:nonzero;stroke:#5aff3e;stroke-width:0"
       id="path898" />
    <text
       id="text1065"
       y="25.817238"
       x="16.91708"
       style="font-size:16.9333px;line-height:1.25;font-family:'Iosevka Sparkle';-inkscape-font-specification:'Iosevka Sparkle';letter-spacing:-0.529167px;display:inline;opacity:0.65;fill:#a8a8a8;fill-opacity:1;stroke-width:0.264583;filter:url(#filter1003)"
       xml:space="preserve"><tspan
         style="font-size:16.9333px;fill:#a8a8a8;fill-opacity:1;stroke-width:0.264583"
         y="25.817238"
         x="16.91708"
         id="tspan1063"
         sodipodi:role="line">50</tspan></text>
  </g>
  <g
     sodipodi:insensitive="true"
     id="g866"
     inkscape:groupmode="layer"
     inkscape:label="100"
     style="display:none">
    <path
       d="M -39.6875,2.6458338 V 10.583334 H 92.604165 V 2.6458338 Z m 61.851521,1.635042 h 0.533818 v 2.019515 h 1.57458 v -2.019515 h 0.533302 v 4.667415 h -0.533302 v -2.165242 h -1.57458 v 2.165242 h -0.533818 z m 3.299023,0 h 1.917713 v 0.476457 h -0.691949 v 3.708301 h 0.691949 v 0.482657 h -1.917713 v -0.482657 h 0.691949 v -3.708301 h -0.691949 z m 2.495455,0 h 2.794145 v 0.476457 h -1.130681 v 4.190958 h -0.533299 v -4.190958 h -1.130165 z"
       style="opacity:0.65;fill:url(#linearGradient874);fill-opacity:1;fill-rule:nonzero;stroke:#5aff3e;stroke-width:0"
       id="path860" />
    <text
       xml:space="preserve"
       style="font-size:16.9333px;line-height:1.25;font-family:'Iosevka Sparkle';-inkscape-font-specification:'Iosevka Sparkle';letter-spacing:-0.529167px;display:inline;opacity:0.65;fill:#fff952;fill-opacity:1;stroke-width:0.264583;filter:url(#filter1003)"
       x="12.159485"
       y="25.817238"
       id="text1059"><tspan
         sodipodi:role="line"
         id="tspan1057"
         x="12.159485"
         y="25.817238"
         style="font-size:16.9333px;fill:#fff952;fill-opacity:1;stroke-width:0.264583">100</tspan></text>
  </g>
  <g
     sodipodi:insensitive="true"
     id="g936"
     inkscape:groupmode="layer"
     inkscape:label="200"
     style="display:none">
    <path
       id="path930"
       style="opacity:0.65;fill:url(#linearGradient949);fill-opacity:1;fill-rule:nonzero;stroke:#5aff3e;stroke-width:0"
       d="M -39.6875,2.6458338 V 10.583334 H 92.604165 V 2.6458338 Z m 61.851521,1.635042 h 0.533818 v 2.019515 h 1.57458 v -2.019515 h 0.533302 v 4.667415 h -0.533302 v -2.165242 h -1.57458 v 2.165242 h -0.533818 z m 3.299023,0 h 1.917713 v 0.476457 h -0.691949 v 3.708301 h 0.691949 v 0.482657 h -1.917713 v -0.482657 h 0.691949 v -3.708301 h -0.691949 z m 2.495455,0 h 2.794145 v 0.476457 h -1.130681 v 4.190958 h -0.533299 v -4.190958 h -1.130165 z"
       sodipodi:nodetypes="cccccccccccccccccccccccccccccccccccccccc" />
    <text
       id="text1053"
       y="25.817238"
       x="12.303418"
       style="font-size:16.9333px;line-height:1.25;font-family:'Iosevka Sparkle';-inkscape-font-specification:'Iosevka Sparkle';letter-spacing:-0.529167px;display:inline;opacity:0.65;fill:#8bff52;fill-opacity:1;stroke-width:0.264583;filter:url(#filter1003)"
       xml:space="preserve"><tspan
         style="font-size:16.9333px;fill:#8bff52;fill-opacity:1;stroke-width:0.264583"
         y="25.817238"
         x="12.303418"
         id="tspan1051"
         sodipodi:role="line">200</tspan></text>
  </g>
  <g
     sodipodi:insensitive="true"
     id="g920"
     inkscape:groupmode="layer"
     inkscape:label="300"
     style="display:none">
    <path
       d="M -39.6875,2.6458338 V 10.583334 H 92.604165 V 2.6458338 Z m 59.344697,1.584399 c 0.160866,0 0.321791,0.01874 0.482658,0.05684 0.160867,0.0381 0.306983,0.110175 0.438216,0.216008 0.131234,0.105833 0.230958,0.235173 0.298691,0.387573 0.06773,0.1524 0.101285,0.31084 0.101285,0.47594 h -0.533302 c 0,-0.127 -0.038,-0.245467 -0.114205,-0.355534 -0.07197,-0.1143 -0.171688,-0.192278 -0.298688,-0.234611 -0.122767,-0.04657 -0.247655,-0.07028 -0.374655,-0.07028 -0.1397,0 -0.274942,0.02765 -0.406175,0.08268 -0.127,0.05503 -0.22424,0.146369 -0.291973,0.273369 -0.06773,0.122767 -0.101804,0.25159 -0.101804,0.387056 0,0.1905 0.06762,0.359813 0.203089,0.50798 0.135467,0.143933 0.292457,0.250076 0.470257,0.31781 0.1778,0.0635 0.351047,0.135057 0.52038,0.21549 0.173567,0.0762 0.334491,0.175924 0.482658,0.29869 0.148167,0.118534 0.266634,0.26465 0.355534,0.438216 0.0889,0.173567 0.133326,0.353236 0.133326,0.539502 0,0.173567 -0.03604,0.34288 -0.108003,0.50798 -0.06774,0.1651 -0.16891,0.304796 -0.304376,0.419096 -0.135467,0.1143 -0.288002,0.194762 -0.457335,0.241328 -0.169334,0.04233 -0.340614,0.06356 -0.514181,0.06356 -0.169333,0 -0.336677,-0.01874 -0.50178,-0.05684 -0.1651,-0.0381 -0.317635,-0.108206 -0.457335,-0.209806 -0.135466,-0.105833 -0.239125,-0.237141 -0.311091,-0.393774 -0.07197,-0.156634 -0.108006,-0.319526 -0.108006,-0.488859 h 0.533302 c 0,0.135466 0.04049,0.260354 0.120923,0.374654 0.08467,0.1143 0.192262,0.192794 0.323495,0.235127 0.131233,0.0381 0.265025,0.05684 0.400492,0.05684 0.1397,0 0.27691,-0.02516 0.412377,-0.07597 0.135467,-0.0508 0.241609,-0.137682 0.317812,-0.260449 0.08043,-0.127 0.120404,-0.260276 0.120404,-0.399976 0,-0.1905 -0.06959,-0.357844 -0.209288,-0.501778 -0.135467,-0.148166 -0.292457,-0.256278 -0.470257,-0.324011 -0.1778,-0.06773 -0.353531,-0.139291 -0.527098,-0.215491 -0.173566,-0.0762 -0.333975,-0.173955 -0.482142,-0.292488 -0.143933,-0.122767 -0.260432,-0.270851 -0.349332,-0.444417 -0.08467,-0.173567 -0.127124,-0.35572 -0.127124,-0.54622 0,-0.169334 0.03158,-0.334194 0.09508,-0.495061 0.0635,-0.1651 0.158771,-0.304795 0.285771,-0.419096 0.131233,-0.1143 0.279318,-0.194762 0.444418,-0.241328 0.1651,-0.04657 0.334412,-0.06976 0.507979,-0.06976 z m 10.169922,0 c 0.1778,0 0.353533,0.0232 0.5271,0.06976 0.1778,0.04657 0.334272,0.131481 0.469738,0.254248 0.135467,0.122766 0.230738,0.27085 0.285772,0.444417 0.05927,0.169333 0.08888,0.342582 0.08888,0.520382 v 2.19108 c 0,0.1778 -0.02962,0.353533 -0.08888,0.5271 -0.05503,0.169334 -0.150305,0.314932 -0.285772,0.437699 -0.135466,0.122767 -0.291938,0.207682 -0.469738,0.254248 -0.173567,0.04657 -0.3493,0.06976 -0.5271,0.06976 -0.1778,0 -0.353534,-0.0232 -0.527101,-0.06976 -0.173566,-0.04657 -0.330038,-0.131481 -0.469738,-0.254248 -0.135467,-0.122767 -0.233223,-0.268366 -0.292487,-0.437699 -0.05504,-0.173567 -0.08217,-0.3493 -0.08217,-0.5271 v -2.19108 c 0,-0.1778 0.02713,-0.351049 0.08217,-0.520382 0.05926,-0.173567 0.15702,-0.321651 0.292487,-0.444417 0.1397,-0.122767 0.296172,-0.207682 0.469738,-0.254248 0.173567,-0.04657 0.349301,-0.06976 0.527101,-0.06976 z m -18.29139,0.05064 h 1.282611 c 0.148166,0 0.294282,0.01481 0.438216,0.04444 0.148166,0.02963 0.285893,0.08493 0.412893,0.165365 0.127,0.08043 0.234595,0.181607 0.323495,0.304374 0.0889,0.122766 0.150617,0.258527 0.184483,0.406693 0.03387,0.143934 0.05064,0.29005 0.05064,0.438216 v 1.943034 c 0,0.1524 -0.01677,0.302452 -0.05064,0.450619 -0.03387,0.143933 -0.09558,0.277725 -0.184483,0.400492 -0.0889,0.122767 -0.196495,0.223941 -0.323495,0.304374 -0.127,0.0762 -0.264727,0.131498 -0.412893,0.165365 -0.143934,0.02963 -0.29005,0.04444 -0.438216,0.04444 h -1.282611 z m 3.64784,0 h 2.387968 v 0.476457 h -1.85415 v 1.479496 h 1.460376 v 0.47594 h -1.460376 v 1.752868 h 1.85415 v 0.482657 h -2.387968 z m 6.458003,0 h 2.794145 v 0.476457 h -1.130165 v 4.190958 h -0.533299 v -4.190958 h -1.130681 z m 3.47059,0 h 1.403532 c 0.1397,0 0.279395,0.01678 0.419095,0.05064 0.143933,0.03387 0.272756,0.09558 0.387056,0.184485 0.118534,0.0889 0.213805,0.194527 0.285771,0.317293 0.0762,0.122767 0.127045,0.256043 0.152445,0.399976 0.02963,0.1397 0.04444,0.28188 0.04444,0.425814 0,0.156633 -0.01677,0.313105 -0.05064,0.469738 -0.03387,0.152401 -0.09755,0.294064 -0.190685,0.425297 -0.0889,0.131234 -0.202914,0.237377 -0.342614,0.31781 -0.135467,0.0762 -0.279614,0.127046 -0.432014,0.152446 l 1.143082,1.923913 h -0.58446 l -1.136366,-1.911511 h -0.565341 v 1.911511 h -0.533299 z m 6.661091,0 h 0.565341 l 0.882634,2.13372 0.888833,-2.13372 H 34.6692 l -1.181322,2.819467 v 1.847948 h -0.533302 v -1.847948 z m 3.774964,0 h 2.387968 v 0.476457 h -1.85415 v 1.479496 h 1.460376 v 0.47594 h -1.460376 v 1.752868 h 1.85415 v 0.482657 h -2.387968 z m 3.140377,0 h 1.28261 c 0.148166,0 0.294283,0.01481 0.438216,0.04444 0.148167,0.02963 0.285893,0.08493 0.412893,0.165365 0.127,0.08043 0.234595,0.181607 0.323495,0.304374 0.0889,0.122766 0.150617,0.258527 0.184484,0.406693 0.03387,0.143934 0.05064,0.29005 0.05064,0.438216 v 1.943034 c 0,0.1524 -0.01677,0.302452 -0.05064,0.450619 -0.03387,0.143933 -0.09558,0.277725 -0.184484,0.400492 -0.0889,0.122767 -0.196495,0.223941 -0.323495,0.304374 -0.127,0.0762 -0.264726,0.131498 -0.412893,0.165365 -0.143933,0.02963 -0.29005,0.04444 -0.438216,0.04444 h -1.28261 z m -8.861475,0.425297 c -0.110067,0 -0.220147,0.01729 -0.330211,0.05116 -0.105839,0.02963 -0.201104,0.08245 -0.285771,0.158647 -0.08043,0.0762 -0.1377,0.169503 -0.171567,0.279569 -0.03387,0.105834 -0.05064,0.213428 -0.05064,0.323495 v 2.19108 c 0,0.110067 0.01677,0.217661 0.05064,0.323495 0.03387,0.105833 0.09113,0.199136 0.171567,0.279569 0.08467,0.0762 0.179932,0.129013 0.285771,0.158647 0.110064,0.02963 0.220144,0.04444 0.330211,0.04444 0.110066,0 0.218178,-0.01481 0.324011,-0.04444 0.110067,-0.02963 0.204822,-0.08245 0.285255,-0.158647 0.08467,-0.08043 0.144415,-0.173736 0.178282,-0.279569 0.03387,-0.105834 0.05064,-0.213428 0.05064,-0.323495 v -2.19108 c 0,-0.110067 -0.01677,-0.217661 -0.05064,-0.323495 -0.03387,-0.110066 -0.09361,-0.203369 -0.178282,-0.279569 -0.08043,-0.0762 -0.175188,-0.129014 -0.285255,-0.158647 -0.105833,-0.03387 -0.213945,-0.05116 -0.324011,-0.05116 z m -17.75809,0.05116 v 3.708304 h 0.749311 c 0.118533,0 0.235032,-0.01678 0.349332,-0.05064 0.1143,-0.03387 0.213505,-0.0931 0.298172,-0.177767 0.08467,-0.0889 0.144417,-0.190591 0.178284,-0.304891 0.03387,-0.1143 0.05064,-0.230799 0.05064,-0.349333 v -1.943034 c 0,-0.118533 -0.01678,-0.235032 -0.05064,-0.349332 -0.03387,-0.1143 -0.09362,-0.214023 -0.178284,-0.29869 -0.08467,-0.08467 -0.183872,-0.1439 -0.298172,-0.177767 -0.1143,-0.0381 -0.230799,-0.05684 -0.349332,-0.05684 z m 13.576432,0 v 1.803507 h 0.870233 c 0.110067,0 0.21766,-0.02123 0.323493,-0.06356 0.105833,-0.04233 0.190749,-0.110472 0.254249,-0.203606 0.06773,-0.09313 0.114125,-0.194307 0.139525,-0.304374 0.0254,-0.110067 0.03824,-0.220146 0.03824,-0.330212 0,-0.110067 -0.01283,-0.220146 -0.03824,-0.330213 -0.0254,-0.110066 -0.07179,-0.209789 -0.139525,-0.298689 -0.0635,-0.09313 -0.148416,-0.160755 -0.254249,-0.203089 -0.105833,-0.04657 -0.213426,-0.06976 -0.323493,-0.06976 z m 13.576432,0 v 3.708304 h 0.749311 c 0.118533,0 0.235032,-0.01678 0.349332,-0.05064 0.1143,-0.03387 0.213505,-0.0931 0.298172,-0.177767 0.08467,-0.0889 0.144417,-0.190591 0.178284,-0.304891 0.03387,-0.1143 0.05064,-0.230799 0.05064,-0.349333 v -1.943034 c 0,-0.118533 -0.01678,-0.235032 -0.05064,-0.349332 -0.03387,-0.1143 -0.09362,-0.214023 -0.178284,-0.29869 -0.08467,-0.08467 -0.183872,-0.1439 -0.298172,-0.177767 -0.1143,-0.0381 -0.230799,-0.05684 -0.349332,-0.05684 z"
       style="opacity:0.65;fill:url(#linearGradient922);fill-opacity:1;fill-rule:nonzero;stroke:#5aff3e;stroke-width:0"
       id="path914" />
    <text
       xml:space="preserve"
       style="font-size:19.7556px;line-height:1.25;font-family:'Iosevka Sparkle';-inkscape-font-specification:'Iosevka Sparkle';letter-spacing:-0.529167px;display:inline;opacity:0.65;fill:#52abff;fill-opacity:1;stroke-width:0.264583;filter:url(#filter1003)"
       x="9.9350224"
       y="27.907578"
       id="text1047"><tspan
         sodipodi:role="line"
         id="tspan1045"
         x="9.9350224"
         y="27.907578"
         style="font-size:19.7556px;fill:#52abff;fill-opacity:1;stroke-width:0.264583">300</tspan></text>
  </g>
  <g
     sodipodi:insensitive="true"
     style="display:none;filter:url(#filter1003)"
     inkscape:label="300g"
     inkscape:groupmode="layer"
     id="g967">
    <path
       id="path965"
       style="opacity:0.65;fill:url(#linearGradient969);fill-opacity:1;fill-rule:nonzero;stroke:#5aff3e;stroke-width:0"
       d="M -39.6875,2.6458338 V 10.583334 H 92.604165 V 2.6458338 Z m 59.344697,1.584399 c 0.160866,0 0.321791,0.01874 0.482658,0.05684 0.160867,0.0381 0.306983,0.110175 0.438216,0.216008 0.131234,0.105833 0.230958,0.235173 0.298691,0.387573 0.06773,0.1524 0.101285,0.31084 0.101285,0.47594 h -0.533302 c 0,-0.127 -0.038,-0.245467 -0.114205,-0.355534 -0.07197,-0.1143 -0.171688,-0.192278 -0.298688,-0.234611 -0.122767,-0.04657 -0.247655,-0.07028 -0.374655,-0.07028 -0.1397,0 -0.274942,0.02765 -0.406175,0.08268 -0.127,0.05503 -0.22424,0.146369 -0.291973,0.273369 -0.06773,0.122767 -0.101804,0.25159 -0.101804,0.387056 0,0.1905 0.06762,0.359813 0.203089,0.50798 0.135467,0.143933 0.292457,0.250076 0.470257,0.31781 0.1778,0.0635 0.351047,0.135057 0.52038,0.21549 0.173567,0.0762 0.334491,0.175924 0.482658,0.29869 0.148167,0.118534 0.266634,0.26465 0.355534,0.438216 0.0889,0.173567 0.133326,0.353236 0.133326,0.539502 0,0.173567 -0.03604,0.34288 -0.108003,0.50798 -0.06774,0.1651 -0.16891,0.304796 -0.304376,0.419096 -0.135467,0.1143 -0.288002,0.194762 -0.457335,0.241328 -0.169334,0.04233 -0.340614,0.06356 -0.514181,0.06356 -0.169333,0 -0.336677,-0.01874 -0.50178,-0.05684 -0.1651,-0.0381 -0.317635,-0.108206 -0.457335,-0.209806 -0.135466,-0.105833 -0.239125,-0.237141 -0.311091,-0.393774 -0.07197,-0.156634 -0.108006,-0.319526 -0.108006,-0.488859 h 0.533302 c 0,0.135466 0.04049,0.260354 0.120923,0.374654 0.08467,0.1143 0.192262,0.192794 0.323495,0.235127 0.131233,0.0381 0.265025,0.05684 0.400492,0.05684 0.1397,0 0.27691,-0.02516 0.412377,-0.07597 0.135467,-0.0508 0.241609,-0.137682 0.317812,-0.260449 0.08043,-0.127 0.120404,-0.260276 0.120404,-0.399976 0,-0.1905 -0.06959,-0.357844 -0.209288,-0.501778 -0.135467,-0.148166 -0.292457,-0.256278 -0.470257,-0.324011 -0.1778,-0.06773 -0.353531,-0.139291 -0.527098,-0.215491 -0.173566,-0.0762 -0.333975,-0.173955 -0.482142,-0.292488 -0.143933,-0.122767 -0.260432,-0.270851 -0.349332,-0.444417 -0.08467,-0.173567 -0.127124,-0.35572 -0.127124,-0.54622 0,-0.169334 0.03158,-0.334194 0.09508,-0.495061 0.0635,-0.1651 0.158771,-0.304795 0.285771,-0.419096 0.131233,-0.1143 0.279318,-0.194762 0.444418,-0.241328 0.1651,-0.04657 0.334412,-0.06976 0.507979,-0.06976 z m 10.169922,0 c 0.1778,0 0.353533,0.0232 0.5271,0.06976 0.1778,0.04657 0.334272,0.131481 0.469738,0.254248 0.135467,0.122766 0.230738,0.27085 0.285772,0.444417 0.05927,0.169333 0.08888,0.342582 0.08888,0.520382 v 2.19108 c 0,0.1778 -0.02962,0.353533 -0.08888,0.5271 -0.05503,0.169334 -0.150305,0.314932 -0.285772,0.437699 -0.135466,0.122767 -0.291938,0.207682 -0.469738,0.254248 -0.173567,0.04657 -0.3493,0.06976 -0.5271,0.06976 -0.1778,0 -0.353534,-0.0232 -0.527101,-0.06976 -0.173566,-0.04657 -0.330038,-0.131481 -0.469738,-0.254248 -0.135467,-0.122767 -0.233223,-0.268366 -0.292487,-0.437699 -0.05504,-0.173567 -0.08217,-0.3493 -0.08217,-0.5271 v -2.19108 c 0,-0.1778 0.02713,-0.351049 0.08217,-0.520382 0.05926,-0.173567 0.15702,-0.321651 0.292487,-0.444417 0.1397,-0.122767 0.296172,-0.207682 0.469738,-0.254248 0.173567,-0.04657 0.349301,-0.06976 0.527101,-0.06976 z m -18.29139,0.05064 h 1.282611 c 0.148166,0 0.294282,0.01481 0.438216,0.04444 0.148166,0.02963 0.285893,0.08493 0.412893,0.165365 0.127,0.08043 0.234595,0.181607 0.323495,0.304374 0.0889,0.122766 0.150617,0.258527 0.184483,0.406693 0.03387,0.143934 0.05064,0.29005 0.05064,0.438216 v 1.943034 c 0,0.1524 -0.01677,0.302452 -0.05064,0.450619 -0.03387,0.143933 -0.09558,0.277725 -0.184483,0.400492 -0.0889,0.122767 -0.196495,0.223941 -0.323495,0.304374 -0.127,0.0762 -0.264727,0.131498 -0.412893,0.165365 -0.143934,0.02963 -0.29005,0.04444 -0.438216,0.04444 h -1.282611 z m 3.64784,0 h 2.387968 v 0.476457 h -1.85415 v 1.479496 h 1.460376 v 0.47594 h -1.460376 v 1.752868 h 1.85415 v 0.482657 h -2.387968 z m 6.458003,0 h 2.794145 v 0.476457 h -1.130165 v 4.190958 h -0.533299 v -4.190958 h -1.130681 z m 3.47059,0 h 1.403532 c 0.1397,0 0.279395,0.01678 0.419095,0.05064 0.143933,0.03387 0.272756,0.09558 0.387056,0.184485 0.118534,0.0889 0.213805,0.194527 0.285771,0.317293 0.0762,0.122767 0.127045,0.256043 0.152445,0.399976 0.02963,0.1397 0.04444,0.28188 0.04444,0.425814 0,0.156633 -0.01677,0.313105 -0.05064,0.469738 -0.03387,0.152401 -0.09755,0.294064 -0.190685,0.425297 -0.0889,0.131234 -0.202914,0.237377 -0.342614,0.31781 -0.135467,0.0762 -0.279614,0.127046 -0.432014,0.152446 l 1.143082,1.923913 h -0.58446 l -1.136366,-1.911511 h -0.565341 v 1.911511 h -0.533299 z m 6.661091,0 h 0.565341 l 0.882634,2.13372 0.888833,-2.13372 H 34.6692 l -1.181322,2.819467 v 1.847948 h -0.533302 v -1.847948 z m 3.774964,0 h 2.387968 v 0.476457 h -1.85415 v 1.479496 h 1.460376 v 0.47594 h -1.460376 v 1.752868 h 1.85415 v 0.482657 h -2.387968 z m 3.140377,0 h 1.28261 c 0.148166,0 0.294283,0.01481 0.438216,0.04444 0.148167,0.02963 0.285893,0.08493 0.412893,0.165365 0.127,0.08043 0.234595,0.181607 0.323495,0.304374 0.0889,0.122766 0.150617,0.258527 0.184484,0.406693 0.03387,0.143934 0.05064,0.29005 0.05064,0.438216 v 1.943034 c 0,0.1524 -0.01677,0.302452 -0.05064,0.450619 -0.03387,0.143933 -0.09558,0.277725 -0.184484,0.400492 -0.0889,0.122767 -0.196495,0.223941 -0.323495,0.304374 -0.127,0.0762 -0.264726,0.131498 -0.412893,0.165365 -0.143933,0.02963 -0.29005,0.04444 -0.438216,0.04444 h -1.28261 z m -8.861475,0.425297 c -0.110067,0 -0.220147,0.01729 -0.330211,0.05116 -0.105839,0.02963 -0.201104,0.08245 -0.285771,0.158647 -0.08043,0.0762 -0.1377,0.169503 -0.171567,0.279569 -0.03387,0.105834 -0.05064,0.213428 -0.05064,0.323495 v 2.19108 c 0,0.110067 0.01677,0.217661 0.05064,0.323495 0.03387,0.105833 0.09113,0.199136 0.171567,0.279569 0.08467,0.0762 0.179932,0.129013 0.285771,0.158647 0.110064,0.02963 0.220144,0.04444 0.330211,0.04444 0.110066,0 0.218178,-0.01481 0.324011,-0.04444 0.110067,-0.02963 0.204822,-0.08245 0.285255,-0.158647 0.08467,-0.08043 0.144415,-0.173736 0.178282,-0.279569 0.03387,-0.105834 0.05064,-0.213428 0.05064,-0.323495 v -2.19108 c 0,-0.110067 -0.01677,-0.217661 -0.05064,-0.323495 -0.03387,-0.110066 -0.09361,-0.203369 -0.178282,-0.279569 -0.08043,-0.0762 -0.175188,-0.129014 -0.285255,-0.158647 -0.105833,-0.03387 -0.213945,-0.05116 -0.324011,-0.05116 z m -17.75809,0.05116 v 3.708304 h 0.749311 c 0.118533,0 0.235032,-0.01678 0.349332,-0.05064 0.1143,-0.03387 0.213505,-0.0931 0.298172,-0.177767 0.08467,-0.0889 0.144417,-0.190591 0.178284,-0.304891 0.03387,-0.1143 0.05064,-0.230799 0.05064,-0.349333 v -1.943034 c 0,-0.118533 -0.01678,-0.235032 -0.05064,-0.349332 -0.03387,-0.1143 -0.09362,-0.214023 -0.178284,-0.29869 -0.08467,-0.08467 -0.183872,-0.1439 -0.298172,-0.177767 -0.1143,-0.0381 -0.230799,-0.05684 -0.349332,-0.05684 z m 13.576432,0 v 1.803507 h 0.870233 c 0.110067,0 0.21766,-0.02123 0.323493,-0.06356 0.105833,-0.04233 0.190749,-0.110472 0.254249,-0.203606 0.06773,-0.09313 0.114125,-0.194307 0.139525,-0.304374 0.0254,-0.110067 0.03824,-0.220146 0.03824,-0.330212 0,-0.110067 -0.01283,-0.220146 -0.03824,-0.330213 -0.0254,-0.110066 -0.07179,-0.209789 -0.139525,-0.298689 -0.0635,-0.09313 -0.148416,-0.160755 -0.254249,-0.203089 -0.105833,-0.04657 -0.213426,-0.06976 -0.323493,-0.06976 z m 13.576432,0 v 3.708304 h 0.749311 c 0.118533,0 0.235032,-0.01678 0.349332,-0.05064 0.1143,-0.03387 0.213505,-0.0931 0.298172,-0.177767 0.08467,-0.0889 0.144417,-0.190591 0.178284,-0.304891 0.03387,-0.1143 0.05064,-0.230799 0.05064,-0.349333 v -1.943034 c 0,-0.118533 -0.01678,-0.235032 -0.05064,-0.349332 -0.03387,-0.1143 -0.09362,-0.214023 -0.178284,-0.29869 -0.08467,-0.08467 -0.183872,-0.1439 -0.298172,-0.177767 -0.1143,-0.0381 -0.230799,-0.05684 -0.349332,-0.05684 z" />
    <text
       id="text1025"
       y="27.907578"
       x="4.5873671"
       style="font-size:19.7556px;line-height:1.25;font-family:'Iosevka Sparkle';-inkscape-font-specification:'Iosevka Sparkle';letter-spacing:-0.529167px;opacity:0.65;fill:#f452ff;fill-opacity:1;stroke-width:0.264583"
       xml:space="preserve"><tspan
         style="font-size:19.7556px;fill:#f452ff;fill-opacity:1;stroke-width:0.264583"
         y="27.907578"
         x="4.5873671"
         id="tspan1023"
         sodipodi:role="line">300+</tspan></text>
  </g>
</svg>
